<svg width="32" height="32" viewBox="0 0 32 32" fill="none" xmlns="http://www.w3.org/2000/svg">
<path d="M9 10.5407C10.7252 10.0967 12 8.53059 12 6.66675C12 4.45761 10.2091 2.66675 8 2.66675C5.79086 2.66675 4 4.45761 4 6.66675C4 8.53059 5.27477 10.0967 7 10.5407V21.4594C5.27477 21.9035 4 23.4696 4 25.3334C4 27.5426 5.79086 29.3334 8 29.3334C10.2091 29.3334 12 27.5426 12 25.3334C12 23.4696 10.7252 21.9035 9 21.4594V19.5758C9.87199 17.9345 10.9237 17.18 12.0162 16.8265C13.2134 16.4392 14.5681 16.4953 16.0562 16.6606C16.3263 16.6906 16.605 16.7251 16.8889 16.7603C18.0759 16.9073 19.354 17.0655 20.4745 16.9535C21.201 16.8808 21.9316 16.693 22.5965 16.2843C23.2091 15.9078 23.7183 15.3731 24.1127 14.6652C26.2697 14.6055 28 12.8382 28 10.6667C28 8.45761 26.2091 6.66675 24 6.66675C21.7909 6.66675 20 8.45761 20 10.6667C20 12.1655 20.8243 13.4718 22.0443 14.1569C21.8877 14.3381 21.7214 14.4747 21.5493 14.5804C21.2142 14.7863 20.799 14.911 20.2755 14.9634C19.3998 15.051 18.4155 14.9306 17.2544 14.7886C16.942 14.7504 16.6164 14.7106 16.2771 14.6729C14.7653 14.5049 13.0366 14.3943 11.4005 14.9236C10.5396 15.2022 9.73177 15.6478 9 16.3088V10.5407Z" fill="white"/>
</svg>
