<svg width="24" height="24" viewBox="0 0 24 24" fill="none" xmlns="http://www.w3.org/2000/svg">
<path fill-rule="evenodd" clip-rule="evenodd" d="M7 3H17C19.2091 3 21 4.79086 21 7V7.25H3V7C3 4.79086 4.79086 3 7 3ZM8 5.5C8 6.05228 7.55228 6.5 7 6.5C6.44772 6.5 6 6.05228 6 5.5C6 4.94772 6.44772 4.5 7 4.5C7.55228 4.5 8 4.94772 8 5.5ZM10 6.5C10.5523 6.5 11 6.05228 11 5.5C11 4.94772 10.5523 4.5 10 4.5C9.44772 4.5 9 4.94772 9 5.5C9 6.05228 9.44772 6.5 10 6.5Z" fill="#AD79FF"/>
<path d="M3 8.75V17C3 19.2091 4.79086 21 7 21H17C19.2091 21 21 19.2091 21 17V8.75H3Z" fill="#AD79FF"/>
</svg>
