<svg width="24" height="25" viewBox="0 0 24 25" fill="none" xmlns="http://www.w3.org/2000/svg">
<path fill-rule="evenodd" clip-rule="evenodd" d="M12 2.25C9.37665 2.25 7.25 4.37665 7.25 7V7.16666C6.58197 7.51135 5.98763 7.97744 5.49575 8.53613L3.46852 6.91435C3.14507 6.65559 2.67311 6.70803 2.41435 7.03148C2.15559 7.35493 2.20803 7.82689 2.53148 8.08565L4.65075 9.78107C4.33222 10.4073 4.12005 11.0975 4.03773 11.8282C4 12.163 4 12.5611 4 13.3571V13.75H2.5C2.08579 13.75 1.75 14.0858 1.75 14.5C1.75 14.9142 2.08579 15.25 2.5 15.25H4.03469C4.12815 16.2552 4.40758 17.2064 4.83824 18.0689L2.53148 19.9143C2.20803 20.1731 2.15559 20.6451 2.41435 20.9685C2.67311 21.292 3.14507 21.3444 3.46852 21.0857L5.63758 19.3504C7.09927 21.2648 9.40539 22.5 12 22.5C14.5946 22.5 16.9007 21.2648 18.3624 19.3504L20.5315 21.0857C20.8549 21.3444 21.3269 21.292 21.5857 20.9685C21.8444 20.6451 21.792 20.1731 21.4685 19.9143L19.1618 18.0689C19.5924 17.2064 19.8718 16.2552 19.9653 15.25H21.5C21.9142 15.25 22.25 14.9142 22.25 14.5C22.25 14.0858 21.9142 13.75 21.5 13.75H20V13.3571C20 12.5611 20 12.163 19.9623 11.8282C19.8799 11.0975 19.6678 10.4073 19.3493 9.78107L21.4685 8.08565C21.792 7.82689 21.8444 7.35493 21.5857 7.03148C21.3269 6.70803 20.8549 6.65559 20.5315 6.91435L18.5042 8.53613C18.0124 7.97744 17.418 7.51135 16.75 7.16666V7C16.75 4.37665 14.6234 2.25 12 2.25ZM15.2288 6.62697C15.0438 5.00773 13.6688 3.75 12 3.75C10.3312 3.75 8.95621 5.00773 8.77118 6.62697C8.95389 6.58885 9.13971 6.55897 9.32821 6.53773C9.66305 6.5 10.0611 6.5 10.8571 6.5H13.1429C13.9389 6.5 14.337 6.5 14.6718 6.53773C14.8603 6.55897 15.0461 6.58885 15.2288 6.62697ZM12 16.75C12.4142 16.75 12.75 17.0858 12.75 17.5V20.5C12.75 20.9142 12.4142 21.25 12 21.25C11.5858 21.25 11.25 20.9142 11.25 20.5V17.5C11.25 17.0858 11.5858 16.75 12 16.75Z" fill="#AD79FF"/>
</svg>
