<svg width="25" height="25" viewBox="0 0 25 25" fill="none" xmlns="http://www.w3.org/2000/svg">
<path fill-rule="evenodd" clip-rule="evenodd" d="M6.5 3.5H18.5C20.7091 3.5 22.5 5.29086 22.5 7.5V15.5C22.5 17.7091 20.7091 19.5 18.5 19.5H6.5C4.29086 19.5 2.5 17.7091 2.5 15.5V7.5C2.5 5.29086 4.29086 3.5 6.5 3.5ZM10.8975 9.636C11.2488 9.41647 11.3555 8.95375 11.136 8.6025C10.9165 8.25125 10.4538 8.14447 10.1025 8.364L7.4593 10.016C6.36263 10.7014 6.36263 12.2986 7.4593 12.984L10.1025 14.636C10.4538 14.8555 10.9165 14.7488 11.136 14.3975C11.3555 14.0462 11.2488 13.5835 10.8975 13.364L8.2543 11.712C8.09763 11.6141 8.09763 11.3859 8.2543 11.288L10.8975 9.636ZM13.864 8.6025C13.6445 8.95375 13.7512 9.41647 14.1025 9.636L16.7457 11.288C16.9024 11.3859 16.9024 11.6141 16.7457 11.712L14.1025 13.364C13.7512 13.5835 13.6445 14.0462 13.864 14.3975C14.0835 14.7488 14.5462 14.8555 14.8975 14.636L17.5407 12.984C18.6374 12.2986 18.6374 10.7014 17.5407 10.016L14.8975 8.364C14.5462 8.14447 14.0835 8.25125 13.864 8.6025Z" fill="#363538"/>
<path d="M10.5 19.75C10.0858 19.75 9.75 20.0858 9.75 20.5C9.75 20.9142 10.0858 21.25 10.5 21.25H14.5C14.9142 21.25 15.25 20.9142 15.25 20.5C15.25 20.0858 14.9142 19.75 14.5 19.75H10.5Z" fill="#AD79FF"/>
</svg>
