<svg width="22" height="23" viewBox="0 0 22 23" fill="none" xmlns="http://www.w3.org/2000/svg">
<path fill-rule="evenodd" clip-rule="evenodd" d="M10.9999 20.6666C16.0625 20.6666 20.1666 16.5625 20.1666 11.4999C20.1666 6.43731 16.0625 2.33325 10.9999 2.33325C5.93731 2.33325 1.83325 6.43731 1.83325 11.4999C1.83325 16.5625 5.93731 20.6666 10.9999 20.6666ZM8.02075 11.4999C8.02075 11.8796 7.71295 12.1874 7.33325 12.1874C6.95356 12.1874 6.64575 11.8796 6.64575 11.4999C6.64575 9.09518 8.59518 7.14575 10.9999 7.14575C11.5737 7.14575 12.1215 7.25672 12.6231 7.45837L13.1604 6.56287C13.3557 6.23728 13.778 6.13171 14.1036 6.32706C14.4292 6.52241 14.5348 6.94471 14.3394 7.2703L13.8016 8.16672C14.7509 8.96544 15.3541 10.1622 15.3541 11.4999C15.3541 11.8796 15.0463 12.1874 14.6666 12.1874C14.2869 12.1874 13.9791 11.8796 13.9791 11.4999C13.9791 10.6643 13.635 9.90898 13.0808 9.36797L12.4639 10.3962C12.6958 10.7032 12.8333 11.0855 12.8333 11.4999C12.8333 12.5124 12.0124 13.3333 10.9999 13.3333C9.9874 13.3333 9.16659 12.5124 9.16659 11.4999C9.16659 10.4874 9.9874 9.66659 10.9999 9.66659C11.0969 9.66659 11.1921 9.67411 11.2849 9.68861L11.9022 8.65984C11.6176 8.56949 11.3144 8.52075 10.9999 8.52075C9.35457 8.52075 8.02075 9.85457 8.02075 11.4999Z" fill="#666666"/>
</svg>
