<svg width="22" height="23" viewBox="0 0 22 23" fill="none" xmlns="http://www.w3.org/2000/svg">
<path fill-rule="evenodd" clip-rule="evenodd" d="M11 20.6666C16.0627 20.6666 20.1667 16.5625 20.1667 11.4999C20.1667 6.43731 16.0627 2.33325 11 2.33325C5.93743 2.33325 1.83337 6.43731 1.83337 11.4999C1.83337 16.5625 5.93743 20.6666 11 20.6666ZM8.02087 11.4999C8.02087 11.8796 7.71307 12.1874 7.33337 12.1874C6.95368 12.1874 6.64587 11.8796 6.64587 11.4999C6.64587 9.09518 8.5953 7.14575 11 7.14575C11.5738 7.14575 12.1216 7.25672 12.6232 7.45837L13.1605 6.56287C13.3559 6.23728 13.7782 6.13171 14.1038 6.32706C14.4293 6.52241 14.5349 6.94471 14.3396 7.2703L13.8017 8.16672C14.751 8.96544 15.3542 10.1622 15.3542 11.4999C15.3542 11.8796 15.0464 12.1874 14.6667 12.1874C14.287 12.1874 13.9792 11.8796 13.9792 11.4999C13.9792 10.6643 13.6351 9.90898 13.081 9.36797L12.464 10.3962C12.6959 10.7032 12.8334 11.0855 12.8334 11.4999C12.8334 12.5124 12.0126 13.3333 11 13.3333C9.98752 13.3333 9.16671 12.5124 9.16671 11.4999C9.16671 10.4874 9.98752 9.66659 11 9.66659C11.097 9.66659 11.1922 9.67411 11.2851 9.68861L11.9023 8.65984C11.6177 8.56949 11.3146 8.52075 11 8.52075C9.35469 8.52075 8.02087 9.85457 8.02087 11.4999Z" fill="#AD79FF"/>
</svg>
