<svg width="24" height="25" viewBox="0 0 24 25" fill="none" xmlns="http://www.w3.org/2000/svg">
<path fill-rule="evenodd" clip-rule="evenodd" d="M7 3.75C4.79086 3.75 3 5.54086 3 7.75C3 9.95914 4.79086 11.75 7 11.75H17C19.2091 11.75 21 9.95914 21 7.75C21 5.54086 19.2091 3.75 17 3.75H7ZM13 8.5C13.4142 8.5 13.75 8.16421 13.75 7.75C13.75 7.33579 13.4142 7 13 7H12C11.5858 7 11.25 7.33579 11.25 7.75C11.25 8.16421 11.5858 8.5 12 8.5H13ZM15.25 7.75C15.25 7.33579 15.5858 7 16 7H17C17.4142 7 17.75 7.33579 17.75 7.75C17.75 8.16421 17.4142 8.5 17 8.5H16C15.5858 8.5 15.25 8.16421 15.25 7.75Z" fill="#666666"/>
<path fill-rule="evenodd" clip-rule="evenodd" d="M7 13.25C4.79086 13.25 3 15.0409 3 17.25C3 19.4591 4.79086 21.25 7 21.25H17C19.2091 21.25 21 19.4591 21 17.25C21 15.0409 19.2091 13.25 17 13.25H7ZM13 18C13.4142 18 13.75 17.6642 13.75 17.25C13.75 16.8358 13.4142 16.5 13 16.5H12C11.5858 16.5 11.25 16.8358 11.25 17.25C11.25 17.6642 11.5858 18 12 18H13ZM15.25 17.25C15.25 16.8358 15.5858 16.5 16 16.5H17C17.4142 16.5 17.75 16.8358 17.75 17.25C17.75 17.6642 17.4142 18 17 18H16C15.5858 18 15.25 17.6642 15.25 17.25Z" fill="#666666"/>
</svg>
