<svg width="25" height="24" viewBox="0 0 25 24" fill="none" xmlns="http://www.w3.org/2000/svg">
<path fill-rule="evenodd" clip-rule="evenodd" d="M7.5 3.25C5.29086 3.25 3.5 5.04086 3.5 7.25C3.5 9.45914 5.29086 11.25 7.5 11.25H17.5C19.7091 11.25 21.5 9.45914 21.5 7.25C21.5 5.04086 19.7091 3.25 17.5 3.25H7.5ZM13.5 8C13.9142 8 14.25 7.66421 14.25 7.25C14.25 6.83579 13.9142 6.5 13.5 6.5H12.5C12.0858 6.5 11.75 6.83579 11.75 7.25C11.75 7.66421 12.0858 8 12.5 8H13.5ZM15.75 7.25C15.75 6.83579 16.0858 6.5 16.5 6.5H17.5C17.9142 6.5 18.25 6.83579 18.25 7.25C18.25 7.66421 17.9142 8 17.5 8H16.5C16.0858 8 15.75 7.66421 15.75 7.25Z" fill="#AD79FF"/>
<path fill-rule="evenodd" clip-rule="evenodd" d="M7.5 12.75C5.29086 12.75 3.5 14.5409 3.5 16.75C3.5 18.9591 5.29086 20.75 7.5 20.75H17.5C19.7091 20.75 21.5 18.9591 21.5 16.75C21.5 14.5409 19.7091 12.75 17.5 12.75H7.5ZM13.5 17.5C13.9142 17.5 14.25 17.1642 14.25 16.75C14.25 16.3358 13.9142 16 13.5 16H12.5C12.0858 16 11.75 16.3358 11.75 16.75C11.75 17.1642 12.0858 17.5 12.5 17.5H13.5ZM15.75 16.75C15.75 16.3358 16.0858 16 16.5 16H17.5C17.9142 16 18.25 16.3358 18.25 16.75C18.25 17.1642 17.9142 17.5 17.5 17.5H16.5C16.0858 17.5 15.75 17.1642 15.75 16.75Z" fill="#AD79FF"/>
</svg>
