<svg width="41" height="41" viewBox="0 0 41 41" fill="none" xmlns="http://www.w3.org/2000/svg">
<path fill-rule="evenodd" clip-rule="evenodd" d="M32.3395 10.6657C30.1619 9.68249 27.8267 8.95812 25.385 8.54324C25.3406 8.53524 25.2962 8.55525 25.2733 8.59527C24.9729 9.12086 24.6403 9.80655 24.4073 10.3455C21.7812 9.95864 19.1685 9.95864 16.5963 10.3455C16.3633 9.79457 16.0185 9.12086 15.7168 8.59527C15.6939 8.55658 15.6495 8.53657 15.605 8.54324C13.1648 8.95679 10.8296 9.68116 8.65054 10.6657C8.63168 10.6737 8.61551 10.687 8.60478 10.7044C4.17536 17.2157 2.96195 23.567 3.55721 29.8396C3.5599 29.8703 3.57741 29.8997 3.60165 29.9183C6.52406 32.0301 9.3549 33.3121 12.1332 34.1618C12.1776 34.1752 12.2248 34.1592 12.2531 34.1231C12.9103 33.2401 13.4961 32.3089 13.9984 31.3297C14.028 31.2724 13.9997 31.2043 13.9392 31.1816C13.0099 30.8348 12.1251 30.4119 11.274 29.9317C11.2066 29.893 11.2013 29.7982 11.2632 29.7529C11.4423 29.6208 11.6215 29.4834 11.7925 29.3447C11.8234 29.3193 11.8665 29.314 11.9029 29.33C17.4945 31.842 23.5481 31.842 29.0737 29.33C29.1101 29.3127 29.1532 29.318 29.1855 29.3433C29.3566 29.4821 29.5357 29.6208 29.7161 29.7529C29.7781 29.7982 29.774 29.893 29.7067 29.9317C28.8556 30.4212 27.9707 30.8348 27.0401 31.1803C26.9796 31.203 26.9526 31.2724 26.9823 31.3297C27.4953 32.3075 28.0812 33.2387 28.7262 34.1218C28.7532 34.1592 28.8017 34.1752 28.8461 34.1618C31.6379 33.3121 34.4687 32.0301 37.3911 29.9183C37.4167 29.8997 37.4329 29.8716 37.4356 29.841C38.148 22.5892 36.2423 16.2899 32.384 10.7057C32.3745 10.687 32.3584 10.6737 32.3395 10.6657ZM17.971 22.6353C17.971 24.5222 16.5752 26.0519 14.8533 26.0519C13.1314 26.0519 11.7356 24.5222 11.7356 22.6353C11.7356 20.7483 13.1314 19.2186 14.8533 19.2186C16.5752 19.2186 17.971 20.7483 17.971 22.6353ZM26.1112 26.0519C27.833 26.0519 29.2289 24.5222 29.2289 22.6353C29.2289 20.7483 27.833 19.2186 26.1112 19.2186C24.3893 19.2186 22.9934 20.7483 22.9934 22.6353C22.9934 24.5222 24.3893 26.0519 26.1112 26.0519Z" fill="white"/>
</svg>
