<svg width="27" height="27" viewBox="0 0 27 27" fill="none" xmlns="http://www.w3.org/2000/svg">
<path fill-rule="evenodd" clip-rule="evenodd" d="M21.0164 7.12078C19.6509 6.50427 18.1866 6.05006 16.6555 5.78991C16.6277 5.78489 16.5998 5.79744 16.5854 5.82253C16.3971 6.15211 16.1885 6.58206 16.0424 6.92001C14.3957 6.67743 12.7575 6.67743 11.1445 6.92001C10.9984 6.57455 10.7823 6.15211 10.5931 5.82253C10.5787 5.79827 10.5509 5.78573 10.523 5.78991C8.99283 6.04923 7.52854 6.50344 6.16219 7.12078C6.15036 7.1258 6.14022 7.13417 6.13349 7.14504C3.35603 11.228 2.59516 15.2106 2.96842 19.1438C2.97011 19.163 2.98109 19.1814 2.99629 19.1931C4.82878 20.5173 6.60386 21.3212 8.34598 21.854C8.37386 21.8624 8.4034 21.8524 8.42114 21.8298C8.83324 21.276 9.20059 20.6922 9.51555 20.0781C9.53414 20.0422 9.5164 19.9995 9.47841 19.9853C8.89573 19.7678 8.34091 19.5026 7.8072 19.2015C7.76499 19.1773 7.76161 19.1178 7.80044 19.0894C7.91276 19.0066 8.0251 18.9204 8.13234 18.8334C8.15174 18.8175 8.17878 18.8142 8.20159 18.8242C11.7078 20.3994 15.5037 20.3994 18.9685 18.8242C18.9913 18.8134 19.0184 18.8167 19.0386 18.8326C19.1459 18.9196 19.2582 19.0066 19.3713 19.0894C19.4102 19.1178 19.4076 19.1773 19.3654 19.2015C18.8317 19.5085 18.2769 19.7678 17.6934 19.9845C17.6554 19.9987 17.6385 20.0422 17.6571 20.0781C17.9788 20.6913 18.3461 21.2752 18.7506 21.8289C18.7675 21.8524 18.7979 21.8624 18.8258 21.854C20.5764 21.3212 22.3514 20.5173 24.1839 19.1931C24.2 19.1814 24.2101 19.1639 24.2118 19.1446C24.6585 14.5974 23.4636 10.6475 21.0442 7.14587C21.0383 7.13417 21.0282 7.1258 21.0164 7.12078ZM12.0066 14.6263C12.0066 15.8095 11.1313 16.7687 10.0516 16.7687C8.97193 16.7687 8.09667 15.8095 8.09667 14.6263C8.09667 13.4431 8.97193 12.4839 10.0516 12.4839C11.1313 12.4839 12.0066 13.4431 12.0066 14.6263ZM17.1109 16.7687C18.1905 16.7687 19.0658 15.8095 19.0658 14.6263C19.0658 13.4431 18.1905 12.4839 17.1109 12.4839C16.0312 12.4839 15.1559 13.4431 15.1559 14.6263C15.1559 15.8095 16.0312 16.7687 17.1109 16.7687Z" fill="white"/>
</svg>
