<svg width="24" height="25" viewBox="0 0 24 25" fill="none" xmlns="http://www.w3.org/2000/svg">
<path fill-rule="evenodd" clip-rule="evenodd" d="M13.3431 3.5H9C6.79086 3.5 5 5.29086 5 7.5V17.5C5 19.7091 6.79086 21.5 9 21.5H15C17.2091 21.5 19 19.7091 19 17.5V9.15685C19 8.09599 18.5786 7.07857 17.8284 6.32843L16.1716 4.67157C15.4214 3.92143 14.404 3.5 13.3431 3.5ZM11.1708 13.1646C11.3561 13.5351 11.2059 13.9856 10.8354 14.1708L8.62426 15.2764C8.44 15.3685 8.44 15.6315 8.62426 15.7236L10.8354 16.8292C11.2059 17.0144 11.3561 17.4649 11.1708 17.8354C10.9856 18.2059 10.5351 18.3561 10.1646 18.1708L7.95344 17.0652C6.66361 16.4203 6.66361 14.5797 7.95344 13.9348L10.1646 12.8292C10.5351 12.6439 10.9856 12.7941 11.1708 13.1646ZM13.1646 14.1708C12.7941 13.9856 12.6439 13.5351 12.8292 13.1646C13.0144 12.7941 13.4649 12.6439 13.8354 12.8292L16.0466 13.9348C17.3364 14.5797 17.3364 16.4203 16.0466 17.0652L13.8354 18.1708C13.4649 18.3561 13.0144 18.2059 12.8292 17.8354C12.6439 17.4649 12.7941 17.0144 13.1646 16.8292L15.3757 15.7236C15.56 15.6315 15.56 15.3685 15.3757 15.2764L13.1646 14.1708Z" fill="#363538"/>
</svg>
