<svg width="24" height="25" viewBox="0 0 24 25" fill="none" xmlns="http://www.w3.org/2000/svg">
<path fill-rule="evenodd" clip-rule="evenodd" d="M9 3.5H13.3431C14.404 3.5 15.4214 3.92143 16.1716 4.67157L17.8284 6.32843C18.5786 7.07857 19 8.09599 19 9.15685V17.5C19 19.7091 17.2091 21.5 15 21.5H9C6.79086 21.5 5 19.7091 5 17.5V7.5C5 5.29086 6.79086 3.5 9 3.5ZM11.25 17.5C11.25 17.9142 11.5858 18.25 12 18.25C12.4142 18.25 12.75 17.9142 12.75 17.5L12.75 9.5C12.75 9.08579 12.4142 8.75 12 8.75C11.5858 8.75 11.25 9.08579 11.25 9.5L11.25 17.5ZM8 18.25C7.58579 18.25 7.25 17.9142 7.25 17.5L7.25 12C7.25 11.5858 7.58579 11.25 8 11.25C8.41421 11.25 8.75 11.5858 8.75 12L8.75 17.5C8.75 17.9142 8.41421 18.25 8 18.25ZM15.25 17.5C15.25 17.9142 15.5858 18.25 16 18.25C16.4142 18.25 16.75 17.9142 16.75 17.5V14.5C16.75 14.0858 16.4142 13.75 16 13.75C15.5858 13.75 15.25 14.0858 15.25 14.5V17.5Z" fill="#363538"/>
</svg>
