<svg width="26" height="27" viewBox="0 0 26 27" fill="none" xmlns="http://www.w3.org/2000/svg">
<path fill-rule="evenodd" clip-rule="evenodd" d="M15.7371 6.59225C14.7018 6.59225 13.8625 7.43154 13.8625 8.46686V11.1349C13.8625 11.2883 13.9869 11.4127 14.1403 11.4127H18.0948C18.2639 11.4127 18.3937 11.5624 18.3698 11.7298L17.9136 14.9234C17.8941 15.0603 17.7768 15.1619 17.6386 15.1619H14.1403C13.9869 15.1619 13.8625 15.2863 13.8625 15.4397V23.7216C13.8625 23.875 13.7381 23.9994 13.5847 23.9994H10.3911C10.2377 23.9994 10.1133 23.875 10.1133 23.7216V15.4397C10.1133 15.2863 9.98888 15.1619 9.83544 15.1619H6.90966C6.75622 15.1619 6.63184 15.0375 6.63184 14.8841V11.6905C6.63184 11.5371 6.75622 11.4127 6.90966 11.4127H9.83544C9.98888 11.4127 10.1133 11.2883 10.1133 11.1349V8.46686C10.1133 5.3609 12.6311 2.84302 15.7371 2.84302H18.6729C18.8264 2.84302 18.9507 2.9674 18.9507 3.12084V6.31443C18.9507 6.46786 18.8264 6.59225 18.6729 6.59225H15.7371Z" fill="white"/>
</svg>
