<svg width="41" height="41" viewBox="0 0 41 41" fill="none" xmlns="http://www.w3.org/2000/svg">
<path fill-rule="evenodd" clip-rule="evenodd" d="M24.7708 9.82243C23.1197 9.82243 21.7812 11.1609 21.7812 12.812V17.0669C21.7812 17.3116 21.9796 17.5099 22.2243 17.5099H28.5308C28.8004 17.5099 29.0076 17.7487 28.9694 18.0156L28.2418 23.1087C28.2107 23.327 28.0237 23.4891 27.8032 23.4891H22.2243C21.9796 23.4891 21.7812 23.6875 21.7812 23.9322V37.1398C21.7812 37.3845 21.5829 37.5828 21.3382 37.5828H16.2451C16.0004 37.5828 15.8021 37.3845 15.8021 37.1398V23.9322C15.8021 23.6875 15.6037 23.4891 15.359 23.4891H10.6931C10.4484 23.4891 10.25 23.2907 10.25 23.046V17.953C10.25 17.7083 10.4484 17.5099 10.6931 17.5099H15.359C15.6037 17.5099 15.8021 17.3116 15.8021 17.0669V12.812C15.8021 7.85871 19.8175 3.84326 24.7708 3.84326H29.4528C29.6975 3.84326 29.8958 4.04163 29.8958 4.28632V9.37937C29.8958 9.62406 29.6975 9.82243 29.4528 9.82243H24.7708Z" fill="white"/>
</svg>
