<svg width="32" height="32" viewBox="0 0 32 32" fill="none" xmlns="http://www.w3.org/2000/svg">
<path fill-rule="evenodd" clip-rule="evenodd" d="M15.3333 5.33337H9.33333C6.38781 5.33337 4 7.72119 4 10.6667V21.3334C4 24.2789 6.38781 26.6667 9.33333 26.6667H22.6667C25.6122 26.6667 28 24.2789 28 21.3334V14.6667C28 11.7212 25.6122 9.33337 22.6667 9.33337H19.3333C18.2288 9.33337 17.3333 8.43794 17.3333 7.33337C17.3333 6.2288 16.4379 5.33337 15.3333 5.33337ZM18.6748 11.9141C19.0905 11.5504 19.7222 11.5926 20.0859 12.0082L22.6621 14.9524L20.0859 17.8966C19.7222 18.3123 19.0905 18.3544 18.6748 17.9907C18.2592 17.627 18.2171 16.9953 18.5808 16.5796L19.1296 15.9524H14.6667C14.1144 15.9524 13.6667 15.5047 13.6667 14.9524C13.6667 14.4001 14.1144 13.9524 14.6667 13.9524H19.1296L18.5808 13.3252C18.2171 12.9096 18.2592 12.2778 18.6748 11.9141ZM12.0859 19.4203C12.4496 19.0046 12.4075 18.3729 11.9918 18.0092C11.5762 17.6455 10.9444 17.6876 10.5808 18.1033L8.00457 21.0475L10.5808 23.9917C10.9444 24.4073 11.5762 24.4495 11.9918 24.0858C12.4075 23.7221 12.4496 23.0903 12.0859 22.6747L11.5371 22.0475H16C16.5523 22.0475 17 21.5998 17 21.0475C17 20.4952 16.5523 20.0475 16 20.0475H11.5371L12.0859 19.4203Z" fill="white"/>
</svg>
