<svg width="32" height="32" viewBox="0 0 32 32" fill="none" xmlns="http://www.w3.org/2000/svg">
<path d="M7.99996 2.66663H10.6666C13.6121 2.66663 16 5.05444 16 7.99996V12C16 14.9455 13.6121 17.3333 10.6666 17.3333H7.99996C5.05444 17.3333 2.66663 14.9455 2.66663 12V7.99996C2.66663 5.05444 5.05444 2.66663 7.99996 2.66663Z" fill="white"/>
<path d="M22.6666 2.66663H24C26.9455 2.66663 29.3333 5.05444 29.3333 7.99996C29.3333 10.9455 26.9455 13.3333 24 13.3333H22.6666C19.7211 13.3333 17.3333 10.9455 17.3333 7.99996C17.3333 5.05444 19.7211 2.66663 22.6666 2.66663Z" fill="white"/>
<path d="M21.3333 14.6666C18.3878 14.6666 16 17.0544 16 20V24C16 26.9455 18.3878 29.3333 21.3333 29.3333H24C26.9455 29.3333 29.3333 26.9455 29.3333 24V20C29.3333 17.0544 26.9455 14.6666 24 14.6666H21.3333Z" fill="white"/>
<path d="M7.99996 18.6666H9.33329C12.2788 18.6666 14.6666 21.0544 14.6666 24C14.6666 26.9455 12.2788 29.3333 9.33329 29.3333H7.99996C5.05444 29.3333 2.66663 26.9455 2.66663 24C2.66663 21.0544 5.05444 18.6666 7.99996 18.6666Z" fill="white"/>
</svg>
