<svg width="27" height="27" viewBox="0 0 27 27" fill="none" xmlns="http://www.w3.org/2000/svg">
<path d="M13.7922 17.5721C15.8628 17.5721 17.5414 15.8935 17.5414 13.8229C17.5414 11.7522 15.8628 10.0737 13.7922 10.0737C11.7215 10.0737 10.0429 11.7522 10.0429 13.8229C10.0429 15.8935 11.7215 17.5721 13.7922 17.5721Z" fill="white"/>
<path fill-rule="evenodd" clip-rule="evenodd" d="M3.08008 13.2873C3.08008 9.28261 3.08008 7.28027 3.94117 5.78882C4.50528 4.81176 5.31664 4.00039 6.29371 3.43628C7.78515 2.5752 9.78749 2.5752 13.7922 2.5752C17.7968 2.5752 19.7992 2.5752 21.2906 3.43628C22.2677 4.00039 23.0791 4.81176 23.6432 5.78882C24.5043 7.28027 24.5043 9.28261 24.5043 13.2873C24.5043 17.292 24.5043 19.2943 23.6432 20.7857C23.0791 21.7628 22.2677 22.5742 21.2906 23.1383C19.7992 23.9994 17.7968 23.9994 13.7922 23.9994C9.78749 23.9994 7.78515 23.9994 6.29371 23.1383C5.31664 22.5742 4.50528 21.7628 3.94117 20.7857C3.08008 19.2943 3.08008 17.292 3.08008 13.2873ZM13.7922 19.1789C16.7502 19.1789 19.1482 16.781 19.1482 13.8229C19.1482 10.8648 16.7502 8.46684 13.7922 8.46684C10.8341 8.46684 8.43612 10.8648 8.43612 13.8229C8.43612 16.781 10.8341 19.1789 13.7922 19.1789ZM18.6126 9.00245C19.5 9.00245 20.2194 8.28305 20.2194 7.39564C20.2194 6.50822 19.5 5.78882 18.6126 5.78882C17.7252 5.78882 17.0058 6.50822 17.0058 7.39564C17.0058 8.28305 17.7252 9.00245 18.6126 9.00245Z" fill="white"/>
</svg>
