<svg width="41" height="41" viewBox="0 0 41 41" fill="none" xmlns="http://www.w3.org/2000/svg">
<path d="M20.4998 27.3337C23.802 27.3337 26.479 24.6567 26.479 21.3545C26.479 18.0523 23.802 15.3753 20.4998 15.3753C17.1976 15.3753 14.5207 18.0523 14.5207 21.3545C14.5207 24.6567 17.1976 27.3337 20.4998 27.3337Z" fill="white"/>
<path fill-rule="evenodd" clip-rule="evenodd" d="M3.4165 20.5003C3.4165 14.1138 3.4165 10.9205 4.78974 8.54199C5.68937 6.9838 6.98331 5.68986 8.5415 4.79023C10.92 3.41699 14.1133 3.41699 20.4998 3.41699C26.8864 3.41699 30.0796 3.41699 32.4582 4.79023C34.0164 5.68986 35.3103 6.9838 36.2099 8.54199C37.5832 10.9205 37.5832 14.1138 37.5832 20.5003C37.5832 26.8869 37.5832 30.0801 36.2099 32.4587C35.3103 34.0169 34.0164 35.3108 32.4582 36.2104C30.0796 37.5837 26.8864 37.5837 20.4998 37.5837C14.1133 37.5837 10.92 37.5837 8.5415 36.2104C6.98331 35.3108 5.68937 34.0169 4.78974 32.4587C3.4165 30.0801 3.4165 26.8869 3.4165 20.5003ZM20.4998 29.8962C25.2173 29.8962 29.0415 26.0719 29.0415 21.3545C29.0415 16.6371 25.2173 12.8128 20.4998 12.8128C15.7824 12.8128 11.9582 16.6371 11.9582 21.3545C11.9582 26.0719 15.7824 29.8962 20.4998 29.8962ZM28.1873 13.667C29.6026 13.667 30.7498 12.5197 30.7498 11.1045C30.7498 9.68926 29.6026 8.54199 28.1873 8.54199C26.7721 8.54199 25.6248 9.68926 25.6248 11.1045C25.6248 12.5197 26.7721 13.667 28.1873 13.667Z" fill="white"/>
</svg>
