<svg width="24" height="27" viewBox="0 0 24 27" fill="none" xmlns="http://www.w3.org/2000/svg">
<path d="M15.9863 7.58508L15.2126 9.71395C14.9935 10.3169 15.3982 10.9721 15.9898 10.9721H19.6185C20.9412 10.9721 21.8996 12.3557 21.5455 13.754L20.0075 19.8276C19.5264 21.7271 17.9502 23.0416 16.1535 23.0416H11.4976C10.7675 23.0416 10.0514 22.8223 9.42682 22.4076L8.17922 21.5793C7.39453 21.0584 6.80987 20.2673 6.5 19.3518V20.8472C6.5 21.4532 6.13369 21.9445 5.68182 21.9445H2.81818C2.36631 21.9445 2 21.4532 2 20.8472V9.87501C2 9.26903 2.36631 8.77779 2.81818 8.77779H5.68182C6.13369 8.77779 6.5 9.26903 6.5 9.87501V11.5969C6.75671 10.8382 7.20296 10.1623 7.80067 9.65432L8.83226 8.77766L12.6215 4.75306C12.8457 4.51493 13.126 4.3501 13.4309 4.2771C15.1831 3.85752 16.6506 5.75719 15.9863 7.58508Z" fill="#AD79FF"/>
</svg>
