<svg width="27" height="27" viewBox="0 0 27 27" fill="none" xmlns="http://www.w3.org/2000/svg">
<path fill-rule="evenodd" clip-rule="evenodd" d="M2.9209 13.2873C2.9209 9.28261 2.9209 7.28027 3.78199 5.78882C4.3461 4.81176 5.15746 4.00039 6.13453 3.43628C7.62598 2.5752 9.62831 2.5752 13.633 2.5752C17.6377 2.5752 19.64 2.5752 21.1315 3.43628C22.1085 4.00039 22.9199 4.81176 23.484 5.78882C24.3451 7.28027 24.3451 9.28261 24.3451 13.2873C24.3451 17.292 24.3451 19.2943 23.484 20.7857C22.9199 21.7628 22.1085 22.5742 21.1315 23.1383C19.64 23.9994 17.6377 23.9994 13.633 23.9994C9.62831 23.9994 7.62598 23.9994 6.13453 23.1383C5.15746 22.5742 4.3461 21.7628 3.78199 20.7857C2.9209 19.2943 2.9209 17.292 2.9209 13.2873ZM14.7314 20.3574V13.656C14.8662 13.446 15.0439 13.2827 15.2645 13.1661C15.4852 13.0494 15.7548 12.9911 16.0734 12.9911C16.3737 12.9911 16.628 13.029 16.8364 13.1048C17.0447 13.1807 17.204 13.3206 17.3143 13.5248C17.4246 13.7231 17.4798 14.0118 17.4798 14.3909V20.3574H20.5958V14.3996C20.5958 13.7114 20.5192 13.134 20.3661 12.6674C20.219 12.195 20.0045 11.8159 19.7226 11.5301C19.4469 11.2443 19.116 11.0373 18.7299 10.909C18.35 10.7806 17.9302 10.7165 17.4706 10.7165C16.8946 10.7165 16.3706 10.8215 15.8988 11.0314C15.4331 11.2356 15.0317 11.5359 14.6947 11.9325C14.6775 11.9528 14.6605 11.9732 14.6437 11.9939L14.5384 10.8915H11.6338V20.3574H14.7314ZM9.77699 10.8915V20.3574H6.67013V10.8915H9.77699ZM8.27697 9.64507C9.22355 9.64507 9.9909 8.87772 9.9909 7.93114C9.9909 6.98456 9.22355 6.2172 8.27697 6.2172C7.33039 6.2172 6.56304 6.98456 6.56304 7.93114C6.56304 8.87772 7.33039 9.64507 8.27697 9.64507Z" fill="white"/>
</svg>
