<svg width="41" height="41" viewBox="0 0 41 41" fill="none" xmlns="http://www.w3.org/2000/svg">
<path fill-rule="evenodd" clip-rule="evenodd" d="M3.41663 20.4998C3.41663 14.1133 3.41663 10.92 4.78987 8.5415C5.68949 6.98331 6.98343 5.68937 8.54163 4.78974C10.9201 3.4165 14.1134 3.4165 20.5 3.4165C26.8865 3.4165 30.0798 3.4165 32.4583 4.78974C34.0165 5.68937 35.3104 6.98331 36.2101 8.5415C37.5833 10.92 37.5833 14.1133 37.5833 20.4998C37.5833 26.8864 37.5833 30.0797 36.2101 32.4582C35.3104 34.0164 34.0165 35.3103 32.4583 36.2099C30.0798 37.5832 26.8865 37.5832 20.5 37.5832C14.1134 37.5832 10.9201 37.5832 8.54163 36.2099C6.98343 35.3103 5.68949 34.0164 4.78987 32.4582C3.41663 30.0797 3.41663 26.8864 3.41663 20.4998ZM22.2517 31.775V21.0878C22.4667 20.753 22.7501 20.4926 23.1019 20.3065C23.4537 20.1205 23.8837 20.0275 24.3919 20.0275C24.8708 20.0275 25.2763 20.088 25.6086 20.2089C25.9409 20.3298 26.195 20.553 26.3709 20.8786C26.5468 21.1948 26.6347 21.6552 26.6347 22.2598V31.775H31.6041V22.2738C31.6041 21.1762 31.482 20.2554 31.2377 19.5113C31.0031 18.7579 30.6611 18.1533 30.2115 17.6975C29.7718 17.2418 29.244 16.9116 28.6284 16.7069C28.0225 16.5023 27.353 16.4 26.6201 16.4C25.7014 16.4 24.8659 16.5674 24.1134 16.9023C23.3707 17.2278 22.7306 17.7068 22.1931 18.3393C22.1657 18.3716 22.1386 18.4042 22.1118 18.4372L21.9439 16.679H17.3116V31.775H22.2517ZM14.3505 16.679V31.775H9.39579V16.679H14.3505ZM11.9583 14.6913C13.4679 14.6913 14.6917 13.4676 14.6917 11.958C14.6917 10.4484 13.4679 9.22467 11.9583 9.22467C10.4488 9.22467 9.225 10.4484 9.225 11.958C9.225 13.4676 10.4488 14.6913 11.9583 14.6913Z" fill="white"/>
</svg>
