<svg width="32" height="32" viewBox="0 0 32 32" fill="none" xmlns="http://www.w3.org/2000/svg">
<path d="M12 12.6667C12.3681 12.6667 12.6666 12.3682 12.6666 12C12.6666 11.6318 12.3681 11.3333 12 11.3333C11.6318 11.3333 11.3333 11.6318 11.3333 12C11.3333 12.3682 11.6318 12.6667 12 12.6667Z" fill="white"/>
<path fill-rule="evenodd" clip-rule="evenodd" d="M28.7055 13.6906C29.5426 15.1197 29.5426 16.8803 28.7055 18.3094L25.9264 23.0539L22.3709 17.2512C21.068 15.0216 17.7624 15.2806 16.825 17.6911L15.3536 21.4747C14.9953 22.3961 13.7345 22.5032 13.2259 21.6555C12.1669 19.8904 9.80174 19.6181 8.35725 20.9248C8.20468 21.0629 8.07189 21.207 7.96821 21.3205L7.93508 21.3568C7.83943 21.4617 7.7689 21.539 7.69453 21.6111L6.12151 23.1357L3.29444 18.3094C2.45735 16.8803 2.45735 15.1197 3.29444 13.6906L7.61807 6.3094C8.45516 4.88034 10.0022 4 11.6763 4H20.3236C21.9978 4 23.5448 4.88034 24.3819 6.3094L28.7055 13.6906ZM12 14.6667C13.4727 14.6667 14.6666 13.4728 14.6666 12C14.6666 10.5272 13.4727 9.33333 12 9.33333C10.5272 9.33333 9.33329 10.5272 9.33329 12C9.33329 13.4728 10.5272 14.6667 12 14.6667Z" fill="white"/>
<path d="M7.16218 24.9123L7.61806 25.6906C8.45515 27.1197 10.0022 28 11.6763 28L20.3236 28C21.9978 28 23.5448 27.1197 24.3819 25.6906L24.78 25.011L20.6596 18.2864L20.6468 18.265C20.1891 17.4744 19.0201 17.5646 18.689 18.416L17.2176 22.1996C16.2566 24.6707 12.8751 24.9581 11.511 22.6845C11.1188 22.0308 10.2359 21.9223 9.69899 22.408C9.62437 22.4755 9.54835 22.5561 9.44502 22.6693L9.41204 22.7054C9.32225 22.804 9.20832 22.9291 9.08649 23.0472L7.16218 24.9123Z" fill="white"/>
</svg>
