<svg width="24" height="24" viewBox="0 0 24 24" fill="none" xmlns="http://www.w3.org/2000/svg">
<path fill-rule="evenodd" clip-rule="evenodd" d="M21.9771 5.06955C21.9586 3.40513 20.655 2.09143 18.9907 2.06017C16.7953 2.01894 13.6778 2.6682 10.2302 4.92378C9.92238 4.76509 9.57447 4.67106 9.21991 4.62665C8.63239 4.55306 7.96128 4.60596 7.25586 4.78184C5.85225 5.1318 4.24288 5.9853 2.74581 7.45996C2.41428 7.72594 2.18002 8.12091 2.11472 8.54373C2.04221 9.01322 2.18064 9.55911 2.66998 9.92141C3.11946 10.2542 3.73396 10.3321 4.41652 10.2475L4.45777 10.2422C4.10771 10.7611 3.86472 11.2795 3.85896 11.7814C3.85574 12.0619 3.92708 12.334 4.08581 12.5728C4.2402 12.8052 4.44872 12.9634 4.65591 13.0714C5.04941 13.2766 5.53373 13.3493 5.97368 13.379C6.56841 13.4193 7.30789 13.3872 7.99286 13.3576C8.31003 13.3438 8.61558 13.3306 8.88964 13.3253C9.35448 13.3162 9.74803 13.327 10.0536 13.3733C10.3742 13.4218 10.4702 13.4924 10.476 13.4966C10.4801 13.5023 10.5495 13.5984 10.5957 13.9195C10.6396 14.2254 10.6473 14.6191 10.6347 15.0838C10.6273 15.3578 10.6117 15.6633 10.5955 15.9803C10.5606 16.6651 10.5229 17.4042 10.5586 17.9993C10.585 18.4394 10.6539 18.9243 10.856 19.3194C10.9625 19.5274 11.1191 19.7371 11.3503 19.8933C11.5879 20.0538 11.8594 20.1273 12.1399 20.1262C12.6477 20.1243 13.1744 19.8796 13.702 19.527C13.6987 19.5499 13.6955 19.5726 13.6926 19.5951C13.6027 20.277 13.6759 20.8921 14.0053 21.3441C14.3638 21.8362 14.9086 21.9788 15.3786 21.9099C15.8019 21.8479 16.1987 21.6167 16.4672 21.2872C17.9533 19.8015 18.8192 18.1987 19.1799 16.7978C19.3612 16.0938 19.4193 15.4231 19.3502 14.835C19.3076 14.4722 19.213 14.1159 19.0502 13.8018C21.3279 10.3756 22.0015 7.26684 21.9771 5.06955ZM7.61874 6.23728C7.9835 6.14634 8.31358 6.10267 8.60066 6.09552C7.85907 6.67792 7.1073 7.33694 6.35067 8.08091C5.39094 8.50899 4.70331 8.70052 4.23201 8.75893C3.8673 8.80414 3.6838 8.76423 3.60741 8.73667C3.62286 8.69758 3.65275 8.65345 3.68924 8.62627C3.71762 8.60514 3.74447 8.58203 3.76958 8.55712C5.10278 7.23435 6.49147 6.51834 7.61874 6.23728ZM15.1797 19.791C15.2417 19.3202 15.4385 18.6341 15.874 17.6777C16.6237 16.9268 17.2885 16.1801 17.8766 15.443C17.8672 15.73 17.821 16.0597 17.7273 16.4238C17.4376 17.5489 16.7109 18.932 15.378 20.255C15.3528 20.2799 15.3295 20.3066 15.3082 20.3348C15.2807 20.3711 15.2364 20.4007 15.1972 20.4158C15.1702 20.3392 15.1317 20.1554 15.1797 19.791ZM15.2673 8.74133C16.0453 9.52537 17.3116 9.53023 18.0957 8.75219C18.8797 7.97415 18.8846 6.70783 18.1065 5.92379C17.3285 5.13974 16.0622 5.13488 15.2781 5.91292C14.4941 6.69096 14.4892 7.95728 15.2673 8.74133Z" fill="#AD79FF"/>
<path d="M7.74552 13.8523C9.04537 13.8573 10.0951 14.9151 10.0901 16.2149C10.086 17.2763 9.37206 18.2036 8.34703 18.4789L7.05463 18.8261C5.86728 19.145 4.7831 18.0525 5.11114 16.8676L5.46821 15.5779C5.7514 14.555 6.68417 13.8482 7.74552 13.8523Z" fill="#AD79FF"/>
</svg>
