<svg width="29" height="29" viewBox="0 0 29 29" fill="none" xmlns="http://www.w3.org/2000/svg">
<path fill-rule="evenodd" clip-rule="evenodd" d="M4.3479 13.9755C9.89474 11.5216 13.6025 9.93556 15.4416 9.15749C20.7214 6.94299 21.8189 6.55396 22.5308 6.55396C22.6791 6.55396 23.0351 6.58388 23.2724 6.76344C23.4504 6.91306 23.5097 7.12254 23.5393 7.27217C23.569 7.4218 23.5987 7.75098 23.569 8.02031C23.2724 11.0428 22.0562 18.4345 21.4037 21.8161C21.1367 23.2525 20.6028 23.7313 20.0985 23.7912C19.001 23.8809 18.1408 23.043 17.073 22.3547C15.4119 21.2475 14.4627 20.5592 12.8313 19.4819C10.9626 18.225 12.1787 17.5367 13.2466 16.4294C13.5135 16.1302 18.4078 11.6713 18.4968 11.2523C18.4968 11.1924 18.5264 11.0129 18.4078 10.9231C18.2891 10.8333 18.1408 10.8633 18.0222 10.8932C17.8442 10.9231 15.1746 12.7187 9.98372 16.2499C9.21251 16.7885 8.53027 17.028 7.90737 17.028C7.22514 17.028 5.92 16.6389 4.94115 16.3097C3.75466 15.9207 2.80547 15.7112 2.89446 15.0529C2.98344 14.6937 3.45804 14.3346 4.3479 13.9755Z" fill="white"/>
</svg>
