<svg width="32" height="32" viewBox="0 0 32 32" fill="none" xmlns="http://www.w3.org/2000/svg">
<path d="M21.4709 20.6667H10.1376C4.80411 20.6667 2.80415 14.6667 8.13757 12.6667C5.4709 2.66674 20.8042 -1.33326 22.1376 10.0001C28.8042 10.0001 29.4709 20.0001 21.4709 20.6667Z" fill="white"/>
<path d="M20.3162 27.7181L17 26.6127V20.6667H15V26.6127L11.6838 27.7181C11.1598 27.8927 10.8767 28.459 11.0513 28.983C11.226 29.5069 11.7923 29.7901 12.3162 29.6154L16 28.3875L19.6838 29.6154C20.2077 29.7901 20.774 29.5069 20.9487 28.983C21.1233 28.459 20.8402 27.8927 20.3162 27.7181Z" fill="white"/>
</svg>
