<svg width="26" height="27" viewBox="0 0 26 27" fill="none" xmlns="http://www.w3.org/2000/svg">
<path d="M21.4689 9.36132C21.4052 21.2327 8.85611 23.7546 3.22618 20.808C3.04975 20.7156 3.10087 20.4607 3.29675 20.4248C5.52308 20.0173 7.02338 19.2064 7.74629 18.6595C7.88847 18.552 7.82174 18.3397 7.64758 18.3016C6.40029 18.0286 5.01252 17.2131 4.4401 15.5366C4.38547 15.3766 4.54061 15.231 4.70438 15.2729C5.44783 15.4634 5.94757 15.4077 6.2316 15.302C6.364 15.2527 6.35152 15.093 6.23133 15.0188C5.02066 14.2711 3.11137 12.6979 3.21168 11.1774C3.22143 11.0296 3.38886 10.9643 3.51378 11.044C4.15262 11.4514 4.45295 11.5611 4.62754 11.5472C4.76836 11.536 4.74432 11.3437 4.63012 11.2605C3.56342 10.4837 2.86175 8.74233 3.66101 6.41508C3.7153 6.257 3.92364 6.22766 4.03003 6.35657C6.5333 9.38953 10.6533 9.93844 12.6629 9.82351C12.79 9.81624 12.8766 9.69331 12.8562 9.5676C12.0359 4.51402 18.0581 3.45754 20.2766 5.91417C20.3484 5.99376 20.4665 6.01573 20.5585 5.96056L22.4451 4.82859C22.6289 4.71832 22.8428 4.91641 22.7469 5.10811L22.1598 6.28243C22.0885 6.42488 22.1921 6.59248 22.3514 6.59248H22.9872C23.044 6.59248 23.1006 6.61311 23.1359 6.65764C23.3003 6.86511 23.3813 7.34557 21.5331 9.20631C21.4931 9.24662 21.4692 9.3045 21.4689 9.36132Z" fill="white"/>
</svg>
