<svg width="24" height="24" viewBox="0 0 24 24" fill="none" xmlns="http://www.w3.org/2000/svg">
<path fill-rule="evenodd" clip-rule="evenodd" d="M12.7594 2.88594C12.3603 2.42026 11.6399 2.42026 11.2408 2.88594L10.68 3.54029C10.3935 3.87457 9.92209 3.98217 9.51893 3.80529L8.72975 3.45907C8.16813 3.21267 7.51907 3.52524 7.36155 4.11796L7.14019 4.95083C7.02711 5.37631 6.64908 5.67779 6.2091 5.69335L5.34785 5.72383C4.73494 5.74551 4.28578 6.30874 4.40102 6.91111L4.56296 7.75755C4.64569 8.18995 4.4359 8.6256 4.04625 8.83052L3.28351 9.23166C2.7407 9.51713 2.5804 10.2195 2.94559 10.7122L3.45875 11.4045C3.72089 11.7582 3.72089 12.2417 3.45875 12.5954L2.94559 13.2878C2.5804 13.7805 2.7407 14.4828 3.28351 14.7683L4.04625 15.1694C4.4359 15.3744 4.64569 15.81 4.56296 16.2424L4.40103 17.0889C4.28578 17.6912 4.73494 18.2545 5.34785 18.2761L6.2091 18.3066C6.64908 18.3222 7.02711 18.6237 7.14019 19.0491L7.36155 19.882C7.51907 20.4747 8.16813 20.7873 8.72975 20.5409L9.51893 20.1947C9.92209 20.0178 10.3935 20.1254 10.68 20.4597L11.2408 21.114C11.6399 21.5797 12.3603 21.5797 12.7594 21.114L13.3202 20.4597C13.6067 20.1254 14.0781 20.0178 14.4812 20.1947L15.2704 20.5409C15.832 20.7873 16.4811 20.4747 16.6386 19.882L16.86 19.0491C16.9731 18.6237 17.3511 18.3222 17.7911 18.3066L18.6523 18.2761C19.2652 18.2545 19.7144 17.6912 19.5991 17.0889L19.4372 16.2424C19.3545 15.81 19.5643 15.3744 19.9539 15.1694L20.7167 14.7683C21.2595 14.4828 21.4198 13.7805 21.0546 13.2878L20.5414 12.5954C20.2793 12.2417 20.2793 11.7582 20.5414 11.4045L21.0546 10.7122C21.4198 10.2195 21.2595 9.51713 20.7167 9.23166L19.9539 8.83052C19.5643 8.6256 19.3545 8.18995 19.4372 7.75755L19.5991 6.91111C19.7144 6.30874 19.2652 5.74551 18.6523 5.72383L17.7911 5.69335C17.3511 5.67779 16.9731 5.37631 16.86 4.95083L16.6386 4.11796C16.4811 3.52524 15.832 3.21267 15.2704 3.45907L14.4812 3.80529C14.0781 3.98217 13.6067 3.87457 13.3202 3.54029L12.7594 2.88594ZM16.0303 8.96973C16.3232 9.26262 16.3232 9.7375 16.0303 10.0304L11.0303 15.0304C10.7374 15.3233 10.2626 15.3233 9.96967 15.0304L7.96967 13.0304C7.67678 12.7375 7.67678 12.2626 7.96967 11.9697C8.26256 11.6768 8.73744 11.6768 9.03033 11.9697L10.5 13.4394L14.9697 8.96973C15.2626 8.67684 15.7374 8.67684 16.0303 8.96973Z" fill="#881FEF"/>
</svg>
