<svg width="24" height="24" viewBox="0 0 24 24" fill="none" xmlns="http://www.w3.org/2000/svg">
<path fill-rule="evenodd" clip-rule="evenodd" d="M12.7593 2.88594C12.3602 2.42026 11.6398 2.42026 11.2407 2.88594L10.6799 3.54029C10.3934 3.87457 9.92197 3.98217 9.51881 3.80529L8.72963 3.45907C8.16801 3.21267 7.51895 3.52524 7.36142 4.11796L7.14007 4.95083C7.02699 5.37631 6.64895 5.67779 6.20898 5.69335L5.34773 5.72383C4.73482 5.74551 4.28566 6.30874 4.4009 6.91111L4.56284 7.75755C4.64557 8.18995 4.43577 8.6256 4.04613 8.83052L3.28339 9.23166C2.74058 9.51713 2.58028 10.2195 2.94547 10.7122L3.45862 11.4045C3.72077 11.7582 3.72077 12.2417 3.45862 12.5954L2.94547 13.2878C2.58028 13.7805 2.74058 14.4828 3.28339 14.7683L4.04612 15.1694C4.43577 15.3744 4.64557 15.81 4.56284 16.2424L4.4009 17.0889C4.28566 17.6912 4.73482 18.2545 5.34773 18.2761L6.20898 18.3066C6.64895 18.3222 7.02699 18.6237 7.14007 19.0491L7.36142 19.882C7.51895 20.4747 8.16801 20.7873 8.72963 20.5409L9.51881 20.1947C9.92197 20.0178 10.3934 20.1254 10.6799 20.4597L11.2407 21.114C11.6398 21.5797 12.3602 21.5797 12.7593 21.114L13.3201 20.4597C13.6066 20.1254 14.078 20.0178 14.4811 20.1947L15.2703 20.5409C15.8319 20.7873 16.481 20.4747 16.6385 19.882L16.8599 19.0491C16.9729 18.6237 17.351 18.3222 17.7909 18.3066L18.6522 18.2761C19.2651 18.2545 19.7143 17.6912 19.599 17.0889L19.4371 16.2424C19.3544 15.81 19.5642 15.3744 19.9538 15.1694L20.7165 14.7683C21.2593 14.4828 21.4196 13.7805 21.0545 13.2878L20.5413 12.5954C20.2792 12.2417 20.2792 11.7582 20.5413 11.4045L21.0545 10.7122C21.4196 10.2195 21.2593 9.51713 20.7165 9.23166L19.9538 8.83052C19.5642 8.6256 19.3544 8.18995 19.4371 7.75755L19.599 6.91111C19.7143 6.30874 19.2651 5.74551 18.6522 5.72383L17.7909 5.69335C17.351 5.67779 16.9729 5.37631 16.8599 4.95083L16.6385 4.11796C16.481 3.52524 15.8319 3.21267 15.2703 3.45907L14.4811 3.80529C14.078 3.98217 13.6066 3.87457 13.3201 3.54029L12.7593 2.88594ZM16.0302 8.96973C16.3231 9.26262 16.3231 9.7375 16.0302 10.0304L11.0302 15.0304C10.7373 15.3233 10.2624 15.3233 9.96955 15.0304L7.96955 13.0304C7.67665 12.7375 7.67665 12.2626 7.96955 11.9697C8.26244 11.6768 8.73731 11.6768 9.03021 11.9697L10.4999 13.4394L14.9695 8.96973C15.2624 8.67684 15.7373 8.67684 16.0302 8.96973Z" fill="#363538"/>
</svg>
