<svg width="32" height="32" viewBox="0 0 32 32" fill="none" xmlns="http://www.w3.org/2000/svg">
<path d="M24.8925 15.7297C24.8925 16.0765 24.7547 16.4092 24.5094 16.6544C24.2642 16.8997 23.9315 17.0375 23.5847 17.0375C23.2378 17.0375 22.9052 16.8997 22.6599 16.6544C22.4147 16.4092 22.2769 16.0765 22.2769 15.7297C22.2769 15.3828 22.4147 15.0502 22.6599 14.8049C22.9052 14.5597 23.2378 14.4219 23.5847 14.4219C23.9315 14.4219 24.2642 14.5597 24.5094 14.8049C24.7547 15.0502 24.8925 15.3828 24.8925 15.7297Z" fill="white"/>
<path fill-rule="evenodd" clip-rule="evenodd" d="M13.0493 4.28516H17.1191C19.5229 4.28516 21.427 4.28516 22.9166 4.48525C24.4493 4.69188 25.6904 5.12607 26.67 6.1043C27.8784 7.31402 28.2642 8.93307 28.4041 11.0347C29.1587 11.3656 29.7289 12.0679 29.7904 12.9572C29.7969 13.0369 29.7969 13.122 29.7969 13.2004V18.2564C29.7969 18.3348 29.7969 18.4198 29.7917 18.4983C29.7289 19.3876 29.1587 20.0912 28.4041 20.4234C28.2642 22.5237 27.8784 24.1428 26.67 25.3525C25.6904 26.3307 24.4493 26.7649 22.9166 26.9715C21.4257 27.1716 19.5229 27.1716 17.1191 27.1716H13.0493C10.6455 27.1716 8.74137 27.1716 7.25179 26.9715C5.71905 26.7649 4.47795 26.3307 3.49841 25.3525C2.52017 24.3729 2.08599 23.1318 1.87935 21.5991C1.67926 20.1082 1.67926 18.2054 1.67926 15.8016V15.6552C1.67926 13.2514 1.67926 11.3473 1.87935 9.85769C2.08599 8.32495 2.52017 7.08385 3.49841 6.1043C4.47795 5.12607 5.71905 4.69188 7.25179 4.48525C8.74268 4.28516 10.6455 4.28516 13.0493 4.28516ZM26.4202 20.6326H23.8857C21.0805 20.6326 18.6793 18.5035 18.6793 15.7284C18.6793 12.9532 21.0805 10.8242 23.8844 10.8242H26.4189C26.2698 9.07039 25.9337 8.14316 25.2811 7.49188C24.7279 6.93868 23.9694 6.6065 22.6537 6.42995C21.3106 6.24947 19.5386 6.24685 17.0446 6.24685H13.1212C10.6272 6.24685 8.85646 6.24947 7.51074 6.42995C6.1964 6.6065 5.43787 6.93868 4.88468 7.49188C4.33148 8.04508 3.9993 8.8036 3.82274 10.1192C3.64227 11.4637 3.63965 13.2344 3.63965 15.7284C3.63965 18.2224 3.64227 19.9944 3.82274 21.3389C3.9993 22.6532 4.33148 23.4117 4.88468 23.9649C5.43787 24.5181 6.1964 24.8503 7.51204 25.0268C8.85646 25.2073 10.6272 25.2099 13.1212 25.2099H17.0446C19.5386 25.2099 21.3106 25.2073 22.655 25.0268C23.9694 24.8503 24.7279 24.5181 25.2811 23.9649C25.9337 23.3136 26.2711 22.3877 26.4202 20.6326ZM6.91046 10.4972C6.91046 10.2371 7.01379 9.98758 7.19774 9.80364C7.38168 9.61969 7.63117 9.51635 7.8913 9.51635H13.1225C13.3826 9.51635 13.6321 9.61969 13.8161 9.80364C14 9.98758 14.1033 10.2371 14.1033 10.4972C14.1033 10.7573 14 11.0068 13.8161 11.1908C13.6321 11.3747 13.3826 11.4781 13.1225 11.4781H7.8913C7.63117 11.4781 7.38168 11.3747 7.19774 11.1908C7.01379 11.0068 6.91046 10.7573 6.91046 10.4972ZM27.4089 12.7858H23.8857C22.0234 12.7858 20.641 14.1708 20.641 15.7284C20.641 17.286 22.0234 18.6709 23.8844 18.6709H27.439C27.7084 18.6539 27.8248 18.4722 27.8339 18.3623V13.0945C27.8248 12.9846 27.7084 12.8029 27.439 12.7872L27.4089 12.7858Z" fill="white"/>
</svg>
